<mxfile host="app.diagrams.net" modified="2023-08-15T20:46:32.066Z" agent="Mozilla/5.0 (Macintosh; Intel Mac OS X 10_15_7) AppleWebKit/605.1.15 (KHTML, like Gecko) Version/17.0 Safari/605.1.15" version="21.6.8" etag="eahXz0ZfiLPchuOSD4yq" type="github">
  <diagram name="PÃ¡gina-1" id="nRYsbrdC9WfeNpjGzaVm">
    <mxGraphModel>
      <root>
        <mxCell id="0" />
        <mxCell id="1" parent="0" />
      </root>
    </mxGraphModel>
  </diagram>
</mxfile>
